HIERARCHY
ROOT Hips
{
	OFFSET	0.000000	0.000000	0.000000
	CHANNELS 6 Xposition Yposition Zposition Zrotation Xrotation Yrotation
	JOINT LeftUpLeg
	{
		OFFSET	12.830505	-7.049846	-1.643436
		CHANNELS 3 Zrotation Xrotation Yrotation
		JOINT LeftLeg
		{
			OFFSET	0.620834	-39.957500	-1.919341
			CHANNELS 3 Zrotation Xrotation Yrotation
			JOINT LeftFoot
			{
				OFFSET	-0.413890	-44.704761	-3.870325
				CHANNELS 3 Zrotation Xrotation Yrotation
				JOINT LeftFootHeel
				{
					OFFSET	0.164738	-8.918193	-6.555130
					CHANNELS 3 Zrotation Xrotation Yrotation
					End Site
					{
						OFFSET	-0.604053	0.000000	21.044330
					}
				}
			}
		}
	}
	JOINT RightUpLeg
	{
		OFFSET	-12.830505	-7.049846	-1.643436
		CHANNELS 3 Zrotation Xrotation Yrotation
		JOINT RightLeg
		{
			OFFSET	-0.620834	-39.957500	-1.919341
			CHANNELS 3 Zrotation Xrotation Yrotation
			JOINT RightFoot
			{
				OFFSET	0.413890	-44.704761	-3.870325
				CHANNELS 3 Zrotation Xrotation Yrotation
				JOINT RightFootHeel
				{
					OFFSET	-0.164738	-8.918193	-6.555130
					CHANNELS 3 Zrotation Xrotation Yrotation
					End Site
					{
						OFFSET	0.604053	0.000000	21.044330
					}
				}
			}
		}
	}
	JOINT Spine
	{
		OFFSET	0.000000	12.498170	1.820647
		CHANNELS 3 Zrotation Xrotation Yrotation
		JOINT Spine1
		{
			OFFSET	0.000000	7.620000	0.000000
			CHANNELS 3 Zrotation Xrotation Yrotation
			JOINT LeftShoulder
			{
				OFFSET	9.167800	29.136339	-5.551221
				CHANNELS 3 Zrotation Xrotation Yrotation
				JOINT LeftArm
				{
					OFFSET	12.133453	-3.880866	1.461963
					CHANNELS 3 Zrotation Xrotation Yrotation
					JOINT LeftForeArm
					{
						OFFSET	2.507115	-31.664908	-1.069404
						CHANNELS 3 Zrotation Xrotation Yrotation
						JOINT LeftHand
						{
							OFFSET	4.116172	-24.512624	5.009439
							CHANNELS 3 Zrotation Xrotation Yrotation
							End Site
							{
								OFFSET	-0.213136	-10.931856	2.182134
							}
						}
					}
				}
			}
			JOINT RightShoulder
			{
				OFFSET	-9.167800	29.136339	-5.551221
				CHANNELS 3 Zrotation Xrotation Yrotation
				JOINT RightArm
				{
					OFFSET	-12.133453	-3.880866	1.461963
					CHANNELS 3 Zrotation Xrotation Yrotation
					JOINT RightForeArm
					{
						OFFSET	-2.507115	-31.664908	-1.069404
						CHANNELS 3 Zrotation Xrotation Yrotation
						JOINT RightHand
						{
							OFFSET	-4.116172	-24.512624	5.009439
							CHANNELS 3 Zrotation Xrotation Yrotation
							End Site
							{
								OFFSET	0.213136	-10.931856	2.182134
							}
						}
					}
				}
			}
			JOINT Neck
			{
				OFFSET	0.000000	32.926272	-3.635654
				CHANNELS 3 Zrotation Xrotation Yrotation
				JOINT Head
				{
					OFFSET	0.000000	12.481178	4.646143
					CHANNELS 3 Zrotation Xrotation Yrotation
					End Site
					{
						OFFSET	0.000000	17.715204	-2.222063
					}
				}
			}
		}
	}
}
MOTION
Frames:     12
Frame Time: 0.016667
-1.284540	99.117049	3.805434	3.154614	2.990240	-44.886951	12.730726	-24.836536	17.796797	0.021529	31.811525	2.277673	-7.158707	-7.741014	-3.337731	0.	0.	0.	-18.660324	-17.649549	-11.934804	7.114181	27.760784	-1.852152	6.713540	-9.256154	12.410975	0.	0.	0.	0.000000	-0.000000	-0.000000	5.895638	14.356819	10.024421	7.295048	-7.854169	4.242709	19.807140	-16.975735	4.099067	43.423531	-147.708603	64.023430	-4.326270	10.927384	-1.418778	-5.661555	-3.353828	-11.823381	-15.916264	-22.160818	4.175213	-67.319237	-127.657112	-77.475502	-7.272422	-5.239566	13.073504	-6.627108	10.347231	9.379483	-9.988897	-9.174355	11.297205	
-1.249782	99.415064	4.025671	4.141741	2.690147	-46.355698	11.804031	-23.977310	18.362413	-0.233672	30.117815	2.616693	-7.031039	-6.920625	-2.580216	0.	0.	0.	-18.826244	-18.467072	-10.602896	5.709281	26.881752	-1.132035	7.282277	-8.224662	12.040806	0.	0.	0.	0.000000	0.000000	-0.000002	5.495775	13.012443	9.491532	8.465950	-7.547758	6.020471	28.758512	-21.030987	7.972287	40.799744	-143.697784	59.121197	-7.054733	12.875350	-1.540397	-5.428123	-2.722090	-10.626451	-16.393826	-22.187654	4.846131	-69.740395	-127.763283	-79.689865	-8.026780	-5.007215	12.999394	-9.021141	11.155709	11.226695	-9.509969	-7.958893	11.505898	
-1.248565	99.449887	4.236552	4.142384	2.814430	-46.369087	11.804031	-23.977310	18.362413	-0.233672	30.117815	2.616693	-7.031039	-6.920625	-2.580216	0.	0.	0.	-18.826244	-18.467072	-10.602896	5.709281	26.881752	-1.132035	7.282277	-8.224662	12.040806	0.	0.	0.	0.000000	0.000000	-0.000002	5.495775	13.012443	9.491532	8.465950	-7.547758	6.020471	28.758512	-21.030987	7.972287	40.799744	-143.697784	59.121197	-7.054733	12.875350	-1.540397	-5.428123	-2.722090	-10.626451	-16.393826	-22.187654	4.846131	-69.740395	-127.763283	-79.689865	-8.026780	-5.007215	12.999394	-9.021141	11.155709	11.226695	-9.509969	-7.958893	11.505898	
-1.025028	99.893862	4.425785	5.130444	3.155300	-47.581787	11.040650	-23.718836	17.556755	-0.843553	28.086720	4.819996	-6.949350	-5.631018	-2.414373	0.	0.	0.	-18.508995	-18.970089	-10.128419	4.286066	24.688129	-0.744086	7.816323	-6.445362	12.417669	0.	0.	0.	-0.000000	-0.000000	0.000004	5.827517	11.686435	7.366795	10.163770	-7.152347	7.859527	36.982388	-24.887714	13.528908	45.952824	-134.553909	58.961559	-6.367226	11.297022	2.214645	-5.429529	-2.256489	-9.666573	-16.201523	-23.135611	6.625908	-72.820702	-128.049362	-82.368385	-8.857901	-5.049456	13.107347	-10.919805	10.858163	13.438334	-10.356739	-6.786473	12.423287	
-0.804057	100.245139	4.655025	5.704147	3.661468	-48.469906	10.887519	-23.654495	17.070503	-1.275969	26.718653	6.189708	-6.891091	-4.728433	-2.188124	0.	0.	0.	-18.089804	-19.123602	-10.016235	3.541059	22.595833	-0.228904	8.031004	-4.880330	12.516158	0.	0.	0.	-0.000000	0.000001	-0.000001	6.599013	10.783190	5.588062	11.311986	-7.150982	8.476350	42.737637	-26.643816	16.068321	55.423672	-124.374512	63.706814	-4.471773	9.704658	2.696167	-5.584377	-2.025755	-9.247573	-16.209864	-23.929535	8.170914	-74.460541	-128.408691	-83.997078	-9.177242	-5.122775	13.155544	-13.191198	10.506046	15.755463	-10.051603	-6.616203	12.785748	
-0.603466	100.583278	4.830650	6.139075	4.204555	-49.299248	10.898114	-23.623760	16.687654	-1.566452	25.491415	6.935659	-6.843007	-3.870469	-1.569256	0.	0.	0.	-17.678705	-19.023968	-9.914414	3.223665	20.257229	-0.131129	8.050490	-3.144607	12.851285	0.	0.	0.	-0.000001	-0.000001	-0.000000	7.774389	10.365565	3.721966	12.143862	-7.407979	8.312033	48.921761	-28.597725	19.436943	80.398071	-114.379463	83.700661	-3.352953	9.397626	1.354210	-5.927697	-2.087630	-8.905401	-16.701544	-24.736454	9.529860	-75.231758	-128.824219	-85.113762	-9.364591	-5.239718	13.056022	-16.526239	9.196898	18.429502	-8.117307	-6.153535	12.318499	
-0.154053	100.791637	4.700236	6.416469	4.745354	-50.019253	11.166269	-23.801151	16.850376	-1.569751	24.771429	6.735059	-6.842289	-3.313622	-0.730977	0.	0.	0.	-17.316725	-19.223005	-9.461351	3.319427	18.369532	-0.956565	7.941519	-1.485805	13.557493	0.	0.	0.	0.000000	0.000001	0.000000	9.021697	10.285381	2.048609	12.079132	-7.591537	9.100632	53.858570	-33.662384	20.825758	-65.989166	-67.891068	-64.296127	-4.415240	10.262291	0.639564	-6.615305	-2.452026	-7.765995	-17.413176	-24.785315	9.754066	-74.776024	-129.328171	-85.076340	-9.470233	-5.016448	12.753013	-18.563730	8.178053	20.371641	-6.879200	-5.805459	12.251933	
0.034361	101.103110	4.916463	6.762417	5.491530	-50.899467	11.153675	-24.377867	15.259242	-1.870906	24.357925	8.343077	-6.838306	-2.538234	0.053541	0.	0.	0.	-16.650551	-18.946241	-8.900317	3.330221	15.694578	-1.735732	7.994998	0.483883	14.511991	0.	0.	0.	-0.000000	0.000001	-0.000001	10.504312	10.223117	-0.404511	13.049549	-9.506932	4.992279	57.223213	-35.603085	24.207695	-4.944082	-40.927399	-20.926273	-2.685788	6.017577	-0.827390	-6.289186	-2.899615	-8.650979	-17.900400	-25.760323	12.891645	-75.115112	-129.365158	-85.770264	-9.489679	-5.565051	12.244184	-17.794151	7.704261	19.656435	-5.050410	-5.173513	16.258247	
0.331425	101.112267	4.687812	6.957876	5.862763	-51.546017	11.505324	-25.220133	14.951084	-1.979935	24.900419	8.497347	-6.849560	-2.412683	0.876703	0.	0.	0.	-16.116642	-19.559574	-9.085390	2.904010	15.350260	-0.671243	8.210773	1.108146	14.394630	0.	0.	0.	-0.000001	0.000001	-0.000001	11.143283	10.166341	-2.897907	12.238513	-10.922412	4.076507	64.902122	-38.076462	25.835924	3.941260	-19.780233	-12.874321	-1.493042	4.233375	-2.299855	-5.913721	-3.238120	-7.738218	-17.979349	-26.554411	14.183927	-75.473244	-129.557816	-85.944786	-9.823017	-5.741607	11.955948	-17.602833	6.614235	19.112949	-4.158323	-5.715391	20.158184	
0.692424	101.027495	4.447640	6.930903	6.171209	-52.462765	12.153156	-26.042761	15.448076	-1.873013	26.026695	8.076929	-6.861775	-2.750985	1.701109	0.	0.	0.	-15.550821	-20.481464	-9.594184	2.503061	15.836683	1.042811	8.354815	1.499088	14.179441	0.	0.	0.	-0.000000	-0.000000	0.000000	11.782945	10.659465	-5.933139	11.247366	-11.361649	2.576918	73.309265	-36.500427	30.951897	6.876936	-7.365784	-9.537145	-4.340023	5.767988	-3.265665	-5.405375	-3.812864	-6.887613	-17.693705	-27.964338	16.019814	-76.240898	-129.561676	-85.951187	-9.839664	-5.807261	12.048113	-18.172726	4.990015	15.344022	-0.982029	-5.624185	28.186607	
0.692424	101.027495	4.447640	6.930903	6.171209	-52.462765	12.153156	-26.042761	15.448076	-1.873013	26.026695	8.076929	-6.861775	-2.750985	1.701109	0.	0.	0.	-15.550821	-20.481464	-9.594184	2.503061	15.836683	1.042811	8.354815	1.499088	14.179441	0.	0.	0.	-0.000000	-0.000000	0.000000	11.782945	10.659465	-5.933139	11.247366	-11.361649	2.576918	73.309265	-36.500427	30.951897	6.876936	-7.365784	-9.537145	-4.340023	5.767988	-3.265665	-5.405375	-3.812864	-6.887613	-17.693705	-27.964338	16.019814	-76.240898	-129.561676	-85.951187	-9.839664	-5.807261	12.048113	-18.172726	4.990015	15.344022	-0.982029	-5.624185	28.186607	
0.825070	100.641171	4.627704	7.211401	6.607064	-54.368523	13.031032	-27.163626	17.582544	-1.154198	28.351355	5.744744	-6.816447	-4.701678	3.566381	0.	0.	0.	-15.982512	-22.874125	-10.951170	2.779768	17.964972	2.079144	8.301232	1.842416	15.978213	0.	0.	0.	-0.000000	0.000001	-0.000002	12.297864	11.569883	-6.989597	10.762298	-11.187198	-0.840381	78.400063	-28.748075	34.169910	5.093468	-8.011814	-8.224287	-5.916694	6.009587	-3.135684	-5.506735	-3.647585	-8.143795	-17.519670	-31.023062	16.536390	-76.681641	-130.225266	-85.999054	-9.819807	-5.730584	12.995831	-18.981785	4.702787	11.103145	-0.078005	-7.140767	32.597275	
